# xmcd
#
# Track frame offsets: 
#        150
#        16097
#        27517
#        43617
#
# Disc length: 734 seconds
#
# Revision: 1
# Processed by: cddbd v1.5.2PL0 Copyright (c) Steve Scherf et al.
# Submitted via: ExactAudioCopy v0.99pb5
#
DISCID=2602dc04
DTITLE=Bryony Morgan - little blues singer
DYEAR=2005
DGENRE=Blues
TTITLE0=precious ego
TTITLE1=little jesus
TTITLE2=remnant
TTITLE3=ain't got me sold
EXTD=YEAR: 1999
EXTT0=
EXTT1=
EXTT2=
EXTT3=
PLAYORDER=
